<?xml version="1.0" encoding="UTF-8"?>
<svg width="18px" height="18px" viewBox="0 0 18 18" version="1.1" xmlns="http://www.w3.org/2000/svg" xmlns:xlink="http://www.w3.org/1999/xlink">
    <!-- Generator: Sketch 52.6 (67491) - http://www.bohemiancoding.com/sketch -->
    <title>Shape</title>
    <desc>Created with Sketch.</desc>
    <g id="Page-1" stroke="none" stroke-width="1" fill="none" fill-rule="evenodd">
        <g id="gear-icon" fill="#FFFFFF" fill-rule="nonzero">
            <path d="M17.7721665,11.0064555 L16.7908267,10.0931231 C16.5356233,9.85556488 16.3843373,9.52125769 16.3738721,9.17318166 L16.3720361,9.15665906 L16.3735049,9.10121657 C16.3823177,8.73661795 16.5453541,8.38872551 16.8207535,8.1463941 L17.8296332,7.26372029 C17.9880796,7.1247469 18.0427923,6.90022318 17.9649461,6.70433862 L17.1033132,4.53088288 C17.0541085,4.407147 16.9601055,4.30966368 16.8376446,4.25679137 C16.768244,4.22686711 16.6975581,4.21364904 16.6213643,4.21658639 L15.283107,4.26413475 C15.0901438,4.27129454 14.8935086,4.2340269 14.7143154,4.15655429 C14.5544002,4.08752655 14.4143137,3.99114474 14.2960756,3.8692447 L14.2689029,3.84060553 C14.0280202,3.578447 13.9035397,3.22376194 13.9266732,2.86742462 L14.015719,1.52964508 C14.0300398,1.31907377 13.9094149,1.12153695 13.7159009,1.03782246 L11.5696218,0.110354064 C11.3762914,0.0268231608 11.1500967,0.0741879365 11.0065219,0.228398834 L10.0934811,1.20873954 C9.84121531,1.48007729 9.48411412,1.63245234 9.11269216,1.62676123 C8.94029216,1.62400746 8.77229854,1.58784133 8.6134849,1.51918077 C8.4355769,1.44244249 8.27419287,1.3245813 8.14659116,1.17936604 L7.26347716,0.170386163 C7.21427248,0.114392921 7.15478621,0.0706998329 7.08630357,0.0413263286 C6.96384264,-0.0115459793 6.82816255,-0.0137489921 6.70460003,0.0350844589 L4.53041377,0.897196811 C4.33469661,0.974669429 4.2083801,1.16816739 4.21590768,1.3787387 L4.26382717,2.71651824 C4.27741354,3.07744517 4.13934666,3.43176307 3.88395964,3.68933198 L3.86633408,3.70713967 C3.60121628,3.96415783 3.23695471,4.09799086 2.86681795,4.07375772 L1.52837699,3.98490287 C1.31852266,3.97076687 1.12115311,4.09138182 1.0374317,4.28487978 L0.109886608,6.43061428 C0.0261651976,6.62411224 0.0737174897,6.85028822 0.228124739,6.99330047 L1.20928091,7.90718362 C1.46889072,8.1487807 1.62072758,8.49043127 1.62678636,8.85815083 L1.62531757,8.92699498 C1.6089772,9.28241438 1.44594077,9.62002609 1.17898698,9.85317829 L0.170107271,10.7358521 C0.0118444302,10.8748255 -0.042684646,11.0995328 0.0349779776,11.2952338 L0.896794421,13.4690567 C0.945815509,13.5929761 1.0400021,13.6900923 1.16264662,13.7431482 C1.23094566,13.7727053 1.3036511,13.7864741 1.37819253,13.7835368 L2.71663349,13.7356212 C2.90904585,13.7282778 3.1060482,13.7660962 3.2852414,13.8435688 C3.44276984,13.9114951 3.58010233,14.0058575 3.71486442,14.1426278 L3.74956474,14.1804462 C3.97814622,14.4393002 4.09638436,14.7866419 4.07343441,15.1326985 L3.98402141,16.4708452 C3.97025144,16.6810494 4.09105997,16.878219 4.28439033,16.9617499 L6.43048585,17.8895855 C6.62381622,17.9731164 6.8500109,17.9257516 6.99321858,17.7719079 L7.90185291,16.7963404 C8.14787636,16.5321624 8.49561397,16.3779515 8.86813752,16.3731783 L8.89420866,16.3739127 C9.06367108,16.3759321 9.2296451,16.4119146 9.38754074,16.4800244 C9.56361274,16.5560284 9.72260998,16.671503 9.84855929,16.8148824 L10.7366305,17.8295534 C10.7862024,17.8857302 10.8458722,17.9294233 10.9138041,17.9587968 C11.0358978,18.0116691 11.1715779,18.0136885 11.2956912,17.9646715 L13.4698775,17.1027427 C13.6655946,17.0254537 13.7920947,16.8319557 13.7843836,16.6219352 L13.7362805,15.280484 C13.7243465,14.9338766 13.8523154,14.592226 14.0882409,14.3397975 L14.0990732,14.3260287 L14.1429535,14.284355 C14.4073369,14.033028 14.7682937,13.9024994 15.1343913,13.9267326 L16.4715471,14.0152203 C16.681585,14.0291727 16.8791381,13.9089249 16.9628595,13.7152434 L17.8904046,11.5695089 C17.9737588,11.3760109 17.9263902,11.1498349 17.7721665,11.0064555 Z M7.93471724,11.4639478 C6.57571313,10.8764777 5.94816975,9.29324586 6.53568842,7.93435411 C7.12302348,6.57601312 8.70638629,5.94815447 10.0653904,6.53525739 C11.4245781,7.12291106 12.0519379,8.70651011 11.4646028,10.0650347 C10.8770842,11.42411 9.29372135,12.0516015 7.93471724,11.4639478 Z" id="Shape"></path>
        </g>
    </g>
</svg>